<?xml version="1.0" encoding="utf-8"?>
<!-- Generator: Adobe Illustrator 26.0.2, SVG Export Plug-In . SVG Version: 6.00 Build 0)  -->
<svg version="1.1" id="Layer_1" focusable="false" xmlns="http://www.w3.org/2000/svg" xmlns:xlink="http://www.w3.org/1999/xlink"
	 x="0px" y="0px" viewBox="0 0 64 64" style="enable-background:new 0 0 64 64;" xml:space="preserve">
<style type="text/css">
	.st0{opacity:0.3;enable-background:new    ;}
	.st1{opacity:0.1;enable-background:new    ;}
</style>
<path class="st0" d="M7,14h50v8H7V14z"/>
<path d="M9,16h4v4H9V16z M15,17h6v2h-6V17z M22,17h6v2h-6V17z M29,17h6v2h-6V17z"/>
<path d="M51,17h4c0.6,0,1,0.4,1,1l0,0c0,0.6-0.4,1-1,1h-4c-0.6,0-1-0.4-1-1l0,0C50,17.4,50.4,17,51,17z"/>
<path class="st1" d="M7,22h50v31H7V22z"/>
</svg>
