<?xml version="1.0" encoding="utf-8"?>
<!-- Generator: Adobe Illustrator 26.0.2, SVG Export Plug-In . SVG Version: 6.00 Build 0)  -->
<svg version="1.1" id="Layer_1" focusable="false" xmlns="http://www.w3.org/2000/svg" xmlns:xlink="http://www.w3.org/1999/xlink"
	 x="0px" y="0px" viewBox="0 0 64 64" style="enable-background:new 0 0 64 64;" xml:space="preserve">
<style type="text/css">
	.st0{opacity:0.2;enable-background:new    ;}
	.st1{opacity:0.25;enable-background:new    ;}
	.st2{opacity:0.4;enable-background:new    ;}
</style>
<path class="st0" d="M15,17h16v34H15V17z M34,17h16v34H34V17z"/>
<g>
	<path d="M15,17h2v4h-2V17z M29,17h2v4h-2V17z M17,17h2v2h-2V17z M21,17h4v2h-4V17z M21,49h4v2h-4V49z"/>
	<path d="M27,17h4v2h-4V17z M29,47h2v4h-2V47z M15,47h2v4h-2V47z M15,29h2v4h-2V29z M15,23h2v4h-2V23z M29,29h2v4h-2V29z M15,35h2v4
		h-2V35z M29,35h2v4h-2V35z M15,41h2v4h-2V41z M29,41h2v4h-2V41z M29,23h2v4h-2V23z M27,49h2v2h-2V49z"/>
	<path d="M15,49h4v2h-4V49z M34,17h2v4h-2V17z M48,17h2v4h-2V17z M36,17h2v2h-2V17z M40,17h4v2h-4V17z M40,49h4v2h-4V49z"/>
	<path d="M46,17h4v2h-4V17z M48,47h2v4h-2V47z M34,47h2v4h-2V47z M34,29h2v4h-2V29z M34,23h2v4h-2V23z M48,29h2v4h-2V29z M34,35h2v4
		h-2V35z M48,35h2v4h-2V35z M34,41h2v4h-2V41z M48,41h2v4h-2V41z M48,23h2v4h-2V23z M46,49h2v2h-2V49z"/>
	<path d="M34,49h4v2h-4V49z"/>
</g>
<path class="st1" d="M60,8H4c-1.1,0-2,0.9-2,2v44c0,1.1,0.9,2,2,2h56c1.1,0,2-0.9,2-2V10C62,8.9,61.1,8,60,8z M15.5,10
	c0.8,0,1.5,0.7,1.5,1.5S16.3,13,15.5,13c-0.8,0-1.5-0.7-1.5-1.5S14.7,10,15.5,10z M10.5,10c0.8,0,1.5,0.7,1.5,1.5S11.3,13,10.5,13
	S9,12.3,9,11.5S9.7,10,10.5,10z M5.5,10C6.3,10,7,10.7,7,11.5S6.3,13,5.5,13S4,12.3,4,11.5S4.7,10,5.5,10z M60,54H4V15h56V54z"/>
<path class="st2" d="M31,17v34H15V17H31 M32,16H14v36h18V16z M50,17v34H34V17H50 M51,16H33v36h18V16z"/>
</svg>
