<?xml version="1.0" encoding="utf-8"?>
<!-- Generator: Adobe Illustrator 26.0.2, SVG Export Plug-In . SVG Version: 6.00 Build 0)  -->
<svg version="1.1" id="Layer_1" focusable="false" xmlns="http://www.w3.org/2000/svg" xmlns:xlink="http://www.w3.org/1999/xlink"
	 x="0px" y="0px" viewBox="0 0 64 54" style="enable-background:new 0 0 64 54;" xml:space="preserve">
<style type="text/css">
	.st0{opacity:0.25;enable-background:new    ;}
	.st1{opacity:0.2;enable-background:new    ;}
	.st2{opacity:0.3;}
	.st3{opacity:0.4;enable-background:new    ;}
</style>
<path class="st0" d="M60,3H4C2.9,3,2,3.9,2,5v44c0,1.1,0.9,2,2,2h56c1.1,0,2-0.9,2-2V5C62,3.9,61.1,3,60,3z M15.5,5
	C16.3,5,17,5.7,17,6.5S16.3,8,15.5,8C14.7,8,14,7.3,14,6.5S14.7,5,15.5,5z M10.5,5C11.3,5,12,5.7,12,6.5S11.3,8,10.5,8S9,7.3,9,6.5
	S9.7,5,10.5,5z M5.5,5C6.3,5,7,5.7,7,6.5S6.3,8,5.5,8S4,7.3,4,6.5S4.7,5,5.5,5z M60,49H4V10h56V49z"/>
<path class="st1" d="M6,12h52v16H6V12z"/>
<g>
	<path d="M6,12h2v4H6V12z M56,12h2v4h-2V12z M8,12h2v2H8V12z M24,12h4v2h-4V12z M18,12h4v2h-4V12z M12,12h4v2h-4V12z M30,12h4v2h-4
		V12z M36,12h4v2h-4V12z M42,12h4v2h-4V12z M24,26h4v2h-4V26z M18,26h4v2h-4V26z M12,26h4v2h-4V26z M30,26h4v2h-4V26z M36,26h4v2h-4
		V26z M42,26h4v2h-4V26z M48,12h4v2h-4V12z M48,26h4v2h-4V26z"/>
	<path d="M54,12h4v2h-4V12z M56,24h2v4h-2V24z M6,24h2v4H6V24z M6,18h2v4H6V18z M56,18h2v4h-2V18z M54,26h2v2h-2V26z"/>
	<path d="M6,26h4v2H6V26z"/>
</g>
<g class="st2">
	<path d="M6,31h2v4H6V31z M56,31h2v4h-2V31z M8,31h2v2H8V31z M24,31h4v2h-4V31z M18,31h4v2h-4V31z M12,31h4v2h-4V31z M30,31h4v2h-4
		V31z M36,31h4v2h-4V31z M42,31h4v2h-4V31z M24,45h4v2h-4V45z M18,45h4v2h-4V45z M12,45h4v2h-4V45z M30,45h4v2h-4V45z M36,45h4v2h-4
		V45z M42,45h4v2h-4V45z M48,31h4v2h-4V31z M48,45h4v2h-4V45z"/>
	<path d="M54,31h4v2h-4V31z M56,43h2v4h-2V43z M6,43h2v4H6V43z M6,37h2v4H6V37z M56,37h2v4h-2V37z M54,45h2v2h-2V45z"/>
	<path d="M6,45h4v2H6V45z"/>
</g>
<path class="st3" d="M58,12v16H6V12H58 M59,11H5v18h54V11z"/>
</svg>
